<?xml version="1.0" encoding="UTF-8" standalone="no"?>
<svg
   xmlns:dc="http://purl.org/dc/elements/1.1/"
   xmlns:cc="http://creativecommons.org/ns#"
   xmlns:rdf="http://www.w3.org/1999/02/22-rdf-syntax-ns#"
   xmlns:svg="http://www.w3.org/2000/svg"
   xmlns="http://www.w3.org/2000/svg"
   xmlns:sodipodi="http://sodipodi.sourceforge.net/DTD/sodipodi-0.dtd"
   xmlns:inkscape="http://www.inkscape.org/namespaces/inkscape"
   inkscape:version="1.0 (6e3e5246a0, 2020-05-07)"
   sodipodi:docname="gim2.svg"
   id="svg157"
   version="1.1"
   viewBox="0 0 1136 261"
   height="46.0399mm"
   width="200.388mm">
  <metadata
     id="metadata163">
    <rdf:RDF>
      <cc:Work
         rdf:about="">
        <dc:format>image/svg+xml</dc:format>
        <dc:type
           rdf:resource="http://purl.org/dc/dcmitype/StillImage" />
        <dc:title></dc:title>
      </cc:Work>
    </rdf:RDF>
  </metadata>
  <defs
     id="defs161" />
  <sodipodi:namedview
     inkscape:current-layer="svg157"
     inkscape:window-maximized="1"
     inkscape:window-y="82"
     inkscape:window-x="1920"
     inkscape:cy="-6.0484031"
     inkscape:cx="297.47897"
     inkscape:zoom="1.2183899"
     showgrid="false"
     id="namedview159"
     inkscape:window-height="1022"
     inkscape:window-width="1680"
     inkscape:pageshadow="2"
     inkscape:pageopacity="0"
     guidetolerance="10"
     gridtolerance="10"
     objecttolerance="10"
     borderopacity="1"
     bordercolor="#666666"
     pagecolor="#ffffff" />
  <path
     style="fill:#ffffff;stroke:#ffffff;stroke-opacity:1"
     d="M 633.02,13.61            C 626.57,16.16 626.08,20.68 626.00,27.00              626.00,27.00 626.00,60.00 626.00,60.00              626.00,60.00 626.00,127.00 626.00,127.00              626.00,139.19 625.10,156.53 627.90,168.00              631.48,182.65 642.40,193.83 658.00,193.78              659.92,194.02 663.21,194.06 665.00,193.78              671.53,191.78 674.49,183.40 669.57,178.31              666.17,174.81 662.20,176.83 657.00,175.20              648.23,172.45 645.10,163.35 644.94,155.00              644.94,155.00 644.94,54.00 644.94,54.00              644.94,54.00 644.94,24.00 644.94,24.00              644.01,16.48 640.89,12.81 633.02,13.61 Z            M 122.00,169.00            C 123.71,175.01 123.23,181.91 122.00,188.00              116.06,217.31 90.62,232.63 62.00,224.84              55.51,223.08 48.16,218.97 43.00,214.68              39.11,211.44 35.14,206.01 30.00,205.24              22.18,204.06 16.62,211.51 23.14,219.99              42.70,245.43 86.68,251.78 113.00,233.78              117.31,230.83 122.03,226.98 125.38,222.99              140.72,204.74 141.00,191.41 141.00,169.00              141.00,169.00 141.00,139.00 141.00,139.00              141.05,126.54 141.67,118.23 137.30,106.00              128.68,81.86 105.40,66.30 80.00,66.00              66.84,65.85 53.38,68.01 42.00,75.06              33.56,80.30 26.93,86.45 21.76,95.00              16.01,104.49 13.58,114.05 12.92,125.00              11.37,150.97 19.98,175.03 44.00,188.10              64.73,199.38 94.00,197.57 111.96,182.08              116.45,178.20 119.82,174.58 122.00,169.00 Z            M 194.00,85.00            C 192.29,78.97 193.95,73.87 191.11,70.42              187.57,66.12 179.29,66.41 176.31,71.22              174.78,73.70 175.01,77.18 175.00,80.00              175.00,80.00 175.00,181.00 175.00,181.00              175.00,183.77 174.79,187.43 176.17,189.89              179.03,194.97 187.79,195.38 191.26,190.77              193.29,188.09 192.99,184.19 193.00,181.00              193.00,181.00 193.00,122.00 193.00,122.00              193.04,98.05 204.73,86.77 228.00,83.43              238.21,81.96 247.85,86.96 251.86,80.77              252.85,79.25 253.38,76.81 253.13,75.00              252.00,66.88 240.37,66.03 234.00,66.00              234.00,66.00 230.00,66.00 230.00,66.00              217.47,66.15 199.58,73.23 194.00,85.00 Z            M 282.00,137.00            C 282.00,137.00 370.00,137.00 370.00,137.00              373.31,136.99 377.03,137.28 379.87,135.26              384.46,132.00 384.07,126.88 383.42,122.00              382.19,112.67 382.32,109.24 378.55,100.00              369.96,78.99 350.53,66.27 328.00,66.00              317.12,65.88 305.63,67.45 296.00,72.87              277.41,83.35 265.25,103.60 265.00,125.00              265.00,125.00 265.00,135.00 265.00,135.00              265.12,160.34 281.15,182.81 305.00,191.30              311.00,193.44 317.63,194.92 324.00,195.00              338.24,195.16 349.18,193.51 362.00,186.68              366.02,184.53 372.51,180.75 373.53,176.00              374.77,170.18 368.71,164.80 362.00,166.87              355.66,168.81 352.34,174.80 337.00,177.54              317.21,181.07 298.68,172.24 288.45,155.00              283.92,147.35 284.51,144.60 282.00,137.00 Z            M 431.00,80.00            C 430.99,77.17 431.22,73.71 429.69,71.18              426.44,65.97 418.18,66.30 414.74,71.18              412.72,73.97 413.01,77.69 413.00,81.00              413.00,81.00 413.00,181.00 413.00,181.00              413.01,183.89 412.78,187.24 414.31,189.81              417.29,194.81 425.71,195.48 429.26,190.77              431.29,188.09 430.99,184.19 431.00,181.00              431.00,181.00 431.00,126.00 431.00,126.00              431.02,115.11 432.09,103.66 439.33,95.00              452.77,78.92 477.05,79.92 488.44,98.00              492.74,104.81 493.99,115.06 494.00,123.00              494.00,123.00 494.00,181.00 494.00,181.00              494.01,183.85 493.78,187.27 495.31,189.79              498.29,194.67 506.75,195.43 510.26,190.77              512.29,188.09 511.99,184.19 512.00,181.00              512.00,181.00 512.00,125.00 512.00,125.00              512.18,109.86 514.92,95.87 529.00,87.48              542.85,79.22 560.49,84.80 568.87,98.00              572.82,104.22 573.99,111.78 574.00,119.00              574.00,119.00 574.00,180.00 574.00,180.00              574.07,185.94 574.78,192.67 582.00,193.76              590.64,195.07 592.91,187.94 593.00,181.00              593.00,181.00 593.00,119.00 593.00,119.00              592.97,102.07 587.89,85.23 574.00,74.53              554.28,59.33 517.16,64.34 505.00,87.00              501.45,82.01 499.01,78.50 494.00,74.76              482.06,65.84 462.96,63.10 449.00,68.47              442.11,71.11 436.55,75.24 431.00,80.00 Z            M 738.00,66.43            C 715.27,70.15 698.17,80.29 688.31,102.00              684.62,110.13 683.45,116.20 682.92,125.00              682.36,134.36 682.79,143.99 685.75,153.00              693.61,176.99 716.55,194.70 742.00,195.00              756.69,195.17 767.98,194.31 781.00,186.55              798.53,176.10 810.76,156.61 811.00,136.00              811.21,117.54 809.01,102.80 796.68,88.00              782.51,71.01 759.59,63.76 738.00,66.43 Z            M 894.00,66.43            C 871.96,70.04 854.18,79.94 844.32,101.00              840.62,108.90 838.38,120.28 838.04,129.00              837.87,133.39 838.36,134.91 838.85,139.00              841.56,161.71 852.00,178.53 873.00,188.74              880.45,192.37 889.69,194.90 898.00,195.00              911.50,195.15 922.85,194.36 935.00,187.56              970.75,167.55 978.02,116.11 950.83,86.00              936.74,70.41 914.53,63.89 894.00,66.43 Z            M 1019.00,83.00            C 1019.00,79.37 1019.58,73.28 1017.26,70.39              1013.60,65.83 1006.02,66.52 1002.74,71.13              1000.72,73.97 1001.01,77.69 1001.00,81.00              1001.00,81.00 1001.00,181.00 1001.00,181.00              1001.01,183.89 1000.78,187.24 1002.31,189.81              1005.29,194.81 1013.71,195.48 1017.26,190.77              1019.29,188.09 1018.99,184.19 1019.00,181.00              1019.00,181.00 1019.00,126.00 1019.00,126.00              1019.02,115.43 1020.21,105.34 1027.32,97.01              1042.14,79.67 1074.53,79.00 1089.82,96.01              1100.71,108.14 1100.00,120.98 1100.00,136.00              1100.00,136.00 1100.00,180.00 1100.00,180.00              1100.01,186.17 1100.33,192.60 1108.00,193.76              1118.11,195.29 1118.99,185.19 1119.00,178.00              1119.00,178.00 1119.00,129.00 1119.00,129.00              1119.00,129.00 1118.17,120.00 1118.17,120.00              1116.91,107.01 1115.70,97.95 1107.49,87.00              1091.10,65.15 1057.81,60.04 1034.00,71.97              1028.02,74.96 1023.80,78.42 1019.00,83.00 Z            M 71.00,83.29            C 87.20,81.77 101.99,86.12 112.67,99.00              130.44,120.44 125.32,159.08 100.00,172.68              90.83,177.60 84.08,178.11 74.00,178.00              50.48,177.72 31.28,158.52 31.00,135.00              30.88,124.10 30.97,115.97 36.32,106.00              43.86,91.95 55.80,85.61 71.00,83.29 Z            M 366.00,121.00            C 366.00,121.00 283.00,121.00 283.00,121.00              284.86,100.35 302.06,83.25 323.00,83.00              333.52,82.88 342.61,84.06 351.00,91.21              355.92,95.40 359.49,100.15 362.21,106.00              364.39,110.72 365.75,115.81 366.00,121.00 Z            M 741.00,83.29            C 754.87,81.97 769.97,85.76 779.91,96.04              800.70,117.55 796.76,157.77 770.00,172.65              761.55,177.35 753.42,178.11 744.00,178.00              707.07,177.56 690.43,134.51 707.17,105.00              714.59,91.93 726.66,85.66 741.00,83.29 Z            M 896.00,83.29            C 910.57,81.91 925.21,85.37 935.71,96.17              957.18,118.24 952.08,159.59 924.00,173.63              916.08,177.58 908.63,178.10 900.00,178.00              865.42,177.59 847.53,139.68 860.34,110.00              866.96,94.65 879.89,85.96 896.00,83.29 Z"
     stroke-width="1"
     stroke="black"
     fill="none"
     id="Selection #1" />
</svg>
